<?xml version="1.0" encoding="UTF-8" standalone="no"?>
<!-- Created with Inkscape (http://www.inkscape.org/) -->

<svg
   xmlns:dc="http://purl.org/dc/elements/1.1/"
   xmlns:cc="http://creativecommons.org/ns#"
   xmlns:rdf="http://www.w3.org/1999/02/22-rdf-syntax-ns#"
   xmlns:svg="http://www.w3.org/2000/svg"
   xmlns="http://www.w3.org/2000/svg"
   xmlns:sodipodi="http://sodipodi.sourceforge.net/DTD/sodipodi-0.dtd"
   xmlns:inkscape="http://www.inkscape.org/namespaces/inkscape"
   version="1.1"
   id="svg416"
   xml:space="preserve"
   width="2560"
   height="1440"
   viewBox="0 0 2560 1440"
   sodipodi:docname="Blockchain_Beginners.svg"
   inkscape:version="0.92.2 (5c3e80d, 2017-08-06)"><metadata
     id="metadata422"><rdf:RDF><cc:Work
         rdf:about=""><dc:format>image/svg+xml</dc:format><dc:type
           rdf:resource="http://purl.org/dc/dcmitype/StillImage" /><dc:title></dc:title></cc:Work></rdf:RDF></metadata><defs
     id="defs420"><clipPath
       clipPathUnits="userSpaceOnUse"
       id="clipPath432"><path
         d="M 0,1080 H 1920 V 0 H 0 Z"
         id="path430"
         inkscape:connector-curvature="0" /></clipPath><clipPath
       clipPathUnits="userSpaceOnUse"
       id="clipPath464"><path
         d="M 0,1080 H 1920 V 0 H 0 Z"
         id="path462"
         inkscape:connector-curvature="0" /></clipPath></defs><sodipodi:namedview
     pagecolor="#ffffff"
     bordercolor="#666666"
     borderopacity="1"
     objecttolerance="10"
     gridtolerance="10"
     guidetolerance="10"
     inkscape:pageopacity="0"
     inkscape:pageshadow="2"
     inkscape:window-width="1366"
     inkscape:window-height="705"
     id="namedview418"
     showgrid="false"
     inkscape:zoom="0.14257812"
     inkscape:cx="1280"
     inkscape:cy="720"
     inkscape:window-x="-8"
     inkscape:window-y="-8"
     inkscape:window-maximized="1"
     inkscape:current-layer="g424" /><g
     id="g424"
     inkscape:groupmode="layer"
     inkscape:label="Blockchain_Beginners"
     transform="matrix(1.3333333,0,0,-1.3333333,0,1440)"><g
       id="g426"><g
         id="g428"
         clip-path="url(#clipPath432)"><g
           id="g434"
           transform="translate(1019,554.0835)"><path
             d="M 0,0 H 63.25 V 40.536 H 0 c -27.613,0 -50.1,22.333 -50.368,49.883 C -63.159,83.439 -75.634,76.22 -88.405,69.675 -78.813,29.756 -42.819,0 0,0"
             style="fill:#27357f;fill-opacity:1;fill-rule:nonzero;stroke:none"
             id="path436"
             inkscape:connector-curvature="0" /></g><g
           id="g438"
           transform="translate(881,589.6191)"><path
             d="m 0,0 h 60.167 c 30.536,0 55.38,24.844 55.38,55.381 0,30.537 -24.844,55.381 -55.38,55.381 H 0 Z m -256,-72.619 v 256 H 0 v -42.084 h 60.167 c 47.375,0 85.917,-38.542 85.917,-85.916 0,-47.375 -38.542,-85.917 -85.917,-85.917 H 0 v -42.083 z"
             style="fill:#ffffff;fill-opacity:1;fill-rule:nonzero;stroke:none"
             id="path440"
             inkscape:connector-curvature="0" /></g><g
           id="g442"
           transform="translate(886,594.6191)"><path
             d="m 0,0 v 100.762 h 55.167 c 27.779,0 50.38,-22.601 50.38,-50.381 C 105.547,22.601 82.946,0 55.167,0 Z m 0,183.381 h -266 v -266 H 0 v 42.083 h 55.167 c 50.132,0 90.917,40.785 90.917,90.917 0,50.132 -40.785,90.916 -90.917,90.916 H 0 Z M -10,-10 H 0 55.167 c 33.294,0 60.38,27.087 60.38,60.381 0,33.294 -27.086,60.381 -60.38,60.381 H 0 -10 v -10 V 0 -10 m 0,183.381 v -32.084 -10 H 0 55.167 c 44.618,0 80.917,-36.298 80.917,-80.916 0,-44.618 -36.299,-80.917 -80.917,-80.917 H 0 -10 v -10 -32.083 h -246 v 246 h 246"
             style="fill:#27357f;fill-opacity:1;fill-rule:nonzero;stroke:none"
             id="path444"
             inkscape:connector-curvature="0" /></g><g
           id="g446"
           transform="translate(1019,695.3813)"><path
             d="M 0,0 H 63.25 V 40.535 H 0 c -50.132,0 -90.917,-40.785 -90.917,-90.916 0,-7.313 0.874,-14.425 2.512,-21.242 12.771,6.545 25.246,13.765 38.037,20.745 -0.002,0.166 -0.013,0.33 -0.013,0.497 C -50.381,-22.601 -27.78,0 0,0"
             style="fill:#27357f;fill-opacity:1;fill-rule:nonzero;stroke:none"
             id="path448"
             inkscape:connector-curvature="0" /></g></g></g><text
       transform="matrix(1,0,0,-1,616,438.0806)"
       style="font-variant:normal;font-weight:bold;font-stretch:normal;font-size:73.07309723px;font-family:'Nexa Bold';-inkscape-font-specification:NexaBold;writing-mode:lr-tb;fill:#27357f;fill-opacity:1;fill-rule:nonzero;stroke:none"
       id="text452"><tspan
         x="0 49.908928 66.569595 108.51355 143.36942 181.00208 215.85794 258.31342 302.96106 319.91403 363.02716 377.78793 427.69687 470.29846 510.63483 527.58777 570.70093 613.81403 656.41565 688.12939"
         y="0"
         sodipodi:role="line"
         id="tspan450">Blockchain Beginners</tspan></text>
<text
       transform="matrix(1,0,0,-1,663.9385,551.4468)"
       style="font-variant:normal;font-weight:bold;font-stretch:normal;font-size:272.41940308px;font-family:'Nexa Bold';-inkscape-font-specification:NexaBold;writing-mode:lr-tb;fill:#27357f;fill-opacity:1;fill-rule:nonzero;stroke:none"
       id="text456"><tspan
         x="0"
         y="0"
         id="tspan454">B</tspan></text>
<g
       id="g458"><g
         id="g460"
         clip-path="url(#clipPath464)"><path
           d="m 1074.167,512 h 266 v 266 h -266 z"
           style="fill:#27357f;fill-opacity:1;fill-rule:nonzero;stroke:none"
           id="path466"
           inkscape:connector-curvature="0" /></g></g><text
       transform="matrix(1,0,0,-1,1121.165,551.4468)"
       style="font-variant:normal;font-weight:bold;font-stretch:normal;font-size:272.41940308px;font-family:'Nexa Bold';-inkscape-font-specification:NexaBold;writing-mode:lr-tb;fill:#ffffff;fill-opacity:1;fill-rule:nonzero;stroke:none"
       id="text470"><tspan
         x="0"
         y="0"
         id="tspan468">B</tspan></text>
</g></svg>